<mxfile host="65bd71144e">
    <diagram id="3KQ6l-z81Jsz60mH5ny0" name="Page-1">
        <mxGraphModel dx="2930" dy="1179" grid="1" gridSize="10" guides="1" tooltips="1" connect="1" arrows="1" fold="1" page="1" pageScale="1" pageWidth="850" pageHeight="1100" math="0" shadow="0">
            <root>
                <mxCell id="0"/>
                <mxCell id="1" parent="0"/>
                <mxCell id="_K2zp6BUFUGSj3P7to0--57" style="edgeStyle=none;html=1;entryX=0.501;entryY=0.134;entryDx=0;entryDy=0;entryPerimeter=0;" edge="1" parent="1" source="3" target="4">
                    <mxGeometry relative="1" as="geometry"/>
                </mxCell>
                <mxCell id="3" value="Начало" style="strokeWidth=2;html=1;shape=mxgraph.flowchart.terminator;whiteSpace=wrap;" vertex="1" parent="1">
                    <mxGeometry x="375" y="40" width="170" height="102" as="geometry"/>
                </mxCell>
                <mxCell id="_K2zp6BUFUGSj3P7to0--58" value="" style="edgeStyle=none;html=1;" edge="1" parent="1" source="4" target="6">
                    <mxGeometry relative="1" as="geometry"/>
                </mxCell>
                <mxCell id="4" value="Ввод пределов&lt;br&gt;для x и a,&lt;br&gt;кол-во шагов,&lt;br&gt;выбор операции&lt;br&gt;задание шаблона" style="html=1;strokeWidth=2;shape=manualInput;whiteSpace=wrap;rounded=1;size=26;arcSize=11;spacing=0;spacingBottom=0;spacingTop=13;" vertex="1" parent="1">
                    <mxGeometry x="375" y="180" width="170" height="102" as="geometry"/>
                </mxCell>
                <mxCell id="_K2zp6BUFUGSj3P7to0--59" value="" style="edgeStyle=none;html=1;" edge="1" parent="1" source="6" target="11">
                    <mxGeometry relative="1" as="geometry"/>
                </mxCell>
                <mxCell id="6" value="Пределы x и a&lt;br&gt;Кол-во шагов&lt;br&gt;№ операции&lt;br&gt;Шаблон" style="shape=parallelogram;html=1;strokeWidth=2;perimeter=parallelogramPerimeter;whiteSpace=wrap;rounded=1;arcSize=12;size=0.23;" vertex="1" parent="1">
                    <mxGeometry x="375" y="320" width="170" height="102" as="geometry"/>
                </mxCell>
                <mxCell id="_K2zp6BUFUGSj3P7to0--60" value="" style="edgeStyle=none;html=1;" edge="1" parent="1" source="11" target="20">
                    <mxGeometry relative="1" as="geometry"/>
                </mxCell>
                <mxCell id="11" value="Выполнение программы,&lt;br style=&quot;font-size: 16px;&quot;&gt;количество операций" style="strokeWidth=2;html=1;shape=mxgraph.flowchart.loop_limit;whiteSpace=wrap;fontSize=16;" vertex="1" parent="1">
                    <mxGeometry x="375" y="460" width="170" height="102" as="geometry"/>
                </mxCell>
                <mxCell id="_K2zp6BUFUGSj3P7to0--61" style="edgeStyle=none;html=1;entryX=0.5;entryY=0;entryDx=0;entryDy=0;entryPerimeter=0;" edge="1" parent="1" target="22">
                    <mxGeometry relative="1" as="geometry">
                        <mxPoint x="460" y="730" as="sourcePoint"/>
                        <Array as="points">
                            <mxPoint x="-135" y="730"/>
                        </Array>
                    </mxGeometry>
                </mxCell>
                <mxCell id="_K2zp6BUFUGSj3P7to0--63" style="edgeStyle=none;html=1;entryX=0.5;entryY=0;entryDx=0;entryDy=0;entryPerimeter=0;" edge="1" parent="1" source="20" target="21">
                    <mxGeometry relative="1" as="geometry"/>
                </mxCell>
                <mxCell id="_K2zp6BUFUGSj3P7to0--64" style="edgeStyle=none;html=1;entryX=0.5;entryY=0;entryDx=0;entryDy=0;" edge="1" parent="1" target="54">
                    <mxGeometry relative="1" as="geometry">
                        <mxPoint x="460" y="730" as="sourcePoint"/>
                        <Array as="points">
                            <mxPoint x="875" y="730"/>
                        </Array>
                    </mxGeometry>
                </mxCell>
                <mxCell id="_K2zp6BUFUGSj3P7to0--65" style="edgeStyle=none;html=1;entryX=0.5;entryY=0;entryDx=0;entryDy=0;" edge="1" parent="1" target="55">
                    <mxGeometry relative="1" as="geometry">
                        <mxPoint x="460" y="730" as="sourcePoint"/>
                        <Array as="points">
                            <mxPoint x="1195" y="730"/>
                        </Array>
                    </mxGeometry>
                </mxCell>
                <mxCell id="20" value="Выбранная&lt;br style=&quot;font-size: 16px;&quot;&gt;операция" style="strokeWidth=2;html=1;shape=mxgraph.flowchart.decision;whiteSpace=wrap;fontSize=16;" vertex="1" parent="1">
                    <mxGeometry x="375" y="600" width="170" height="102" as="geometry"/>
                </mxCell>
                <mxCell id="_K2zp6BUFUGSj3P7to0--77" style="edgeStyle=none;html=1;entryX=0.5;entryY=0;entryDx=0;entryDy=0;fontSize=15;exitX=0;exitY=0.5;exitDx=0;exitDy=0;exitPerimeter=0;" edge="1" parent="1" source="21" target="26">
                    <mxGeometry relative="1" as="geometry">
                        <mxPoint x="370" y="811" as="sourcePoint"/>
                        <Array as="points">
                            <mxPoint x="290" y="811"/>
                        </Array>
                    </mxGeometry>
                </mxCell>
                <mxCell id="_K2zp6BUFUGSj3P7to0--78" style="edgeStyle=none;html=1;entryX=0.5;entryY=0;entryDx=0;entryDy=0;fontSize=15;exitX=1;exitY=0.5;exitDx=0;exitDy=0;exitPerimeter=0;" edge="1" parent="1" source="21" target="35">
                    <mxGeometry relative="1" as="geometry">
                        <Array as="points">
                            <mxPoint x="630" y="811"/>
                        </Array>
                    </mxGeometry>
                </mxCell>
                <mxCell id="21" value="Знаменатель равен 0?" style="strokeWidth=2;html=1;shape=mxgraph.flowchart.decision;whiteSpace=wrap;" vertex="1" parent="1">
                    <mxGeometry x="375" y="760" width="170" height="102" as="geometry"/>
                </mxCell>
                <mxCell id="_K2zp6BUFUGSj3P7to0--66" style="edgeStyle=none;html=1;entryX=0.5;entryY=0;entryDx=0;entryDy=0;exitX=0;exitY=0.5;exitDx=0;exitDy=0;exitPerimeter=0;" edge="1" parent="1" source="22" target="28">
                    <mxGeometry relative="1" as="geometry">
                        <Array as="points">
                            <mxPoint x="-305" y="811"/>
                        </Array>
                    </mxGeometry>
                </mxCell>
                <mxCell id="_K2zp6BUFUGSj3P7to0--67" style="edgeStyle=none;html=1;entryX=0.5;entryY=0;entryDx=0;entryDy=0;exitX=1;exitY=0.5;exitDx=0;exitDy=0;exitPerimeter=0;" edge="1" parent="1" source="22" target="24">
                    <mxGeometry relative="1" as="geometry">
                        <Array as="points">
                            <mxPoint x="35" y="811"/>
                        </Array>
                    </mxGeometry>
                </mxCell>
                <mxCell id="22" value="Знаменатель&lt;br&gt;равено 0?" style="strokeWidth=2;html=1;shape=mxgraph.flowchart.decision;whiteSpace=wrap;" vertex="1" parent="1">
                    <mxGeometry x="-220" y="760" width="170" height="102" as="geometry"/>
                </mxCell>
                <mxCell id="_K2zp6BUFUGSj3P7to0--72" style="edgeStyle=none;html=1;entryX=0.5;entryY=0;entryDx=0;entryDy=0;fontSize=15;exitX=0.5;exitY=1;exitDx=0;exitDy=0;" edge="1" parent="1" source="24" target="44">
                    <mxGeometry relative="1" as="geometry">
                        <Array as="points">
                            <mxPoint x="35" y="1190"/>
                            <mxPoint x="-135" y="1190"/>
                        </Array>
                    </mxGeometry>
                </mxCell>
                <mxCell id="24" value="Создание пустой&lt;br style=&quot;font-size: 16px;&quot;&gt;пары" style="rounded=1;whiteSpace=wrap;html=1;absoluteArcSize=1;arcSize=14;strokeWidth=2;fontSize=16;" vertex="1" parent="1">
                    <mxGeometry x="-50" y="920" width="170" height="102" as="geometry"/>
                </mxCell>
                <mxCell id="_K2zp6BUFUGSj3P7to0--74" value="" style="edgeStyle=none;html=1;fontSize=15;" edge="1" parent="1" source="26" target="45">
                    <mxGeometry relative="1" as="geometry"/>
                </mxCell>
                <mxCell id="26" value="Фунция F" style="rounded=1;whiteSpace=wrap;html=1;absoluteArcSize=1;arcSize=14;strokeWidth=2;fontSize=16;" vertex="1" parent="1">
                    <mxGeometry x="205" y="920" width="170" height="102" as="geometry"/>
                </mxCell>
                <mxCell id="_K2zp6BUFUGSj3P7to0--71" value="" style="edgeStyle=none;html=1;fontSize=15;" edge="1" parent="1" source="28" target="43">
                    <mxGeometry relative="1" as="geometry"/>
                </mxCell>
                <mxCell id="28" value="Функция G" style="rounded=1;whiteSpace=wrap;html=1;absoluteArcSize=1;arcSize=14;strokeWidth=2;fontSize=16;" vertex="1" parent="1">
                    <mxGeometry x="-390" y="920" width="170" height="102" as="geometry"/>
                </mxCell>
                <mxCell id="_K2zp6BUFUGSj3P7to0--76" style="edgeStyle=none;html=1;fontSize=15;" edge="1" parent="1" source="35">
                    <mxGeometry relative="1" as="geometry">
                        <mxPoint x="460" y="1220" as="targetPoint"/>
                        <Array as="points">
                            <mxPoint x="630" y="1190"/>
                            <mxPoint x="460" y="1190"/>
                        </Array>
                    </mxGeometry>
                </mxCell>
                <mxCell id="35" value="Создание пустой пары" style="rounded=1;whiteSpace=wrap;html=1;absoluteArcSize=1;arcSize=14;strokeWidth=2;fontSize=16;" vertex="1" parent="1">
                    <mxGeometry x="545" y="920" width="170" height="102" as="geometry"/>
                </mxCell>
                <mxCell id="_K2zp6BUFUGSj3P7to0--73" style="edgeStyle=none;html=1;entryX=0.5;entryY=0;entryDx=0;entryDy=0;fontSize=15;exitX=0.5;exitY=1;exitDx=0;exitDy=0;" edge="1" parent="1" source="43" target="44">
                    <mxGeometry relative="1" as="geometry">
                        <Array as="points">
                            <mxPoint x="-305" y="1190"/>
                            <mxPoint x="-135" y="1190"/>
                        </Array>
                    </mxGeometry>
                </mxCell>
                <mxCell id="43" value="Создание пары&lt;br style=&quot;font-size: 16px;&quot;&gt;пермен-знач" style="rounded=1;whiteSpace=wrap;html=1;absoluteArcSize=1;arcSize=14;strokeWidth=2;fontSize=16;" vertex="1" parent="1">
                    <mxGeometry x="-390" y="1060" width="170" height="102" as="geometry"/>
                </mxCell>
                <mxCell id="_K2zp6BUFUGSj3P7to0--85" value="" style="edgeStyle=none;html=1;fontSize=15;" edge="1" parent="1" source="44" target="49">
                    <mxGeometry relative="1" as="geometry"/>
                </mxCell>
                <mxCell id="44" value="Добавление в массив" style="rounded=1;whiteSpace=wrap;html=1;absoluteArcSize=1;arcSize=14;strokeWidth=2;fontSize=16;" vertex="1" parent="1">
                    <mxGeometry x="-220" y="1220" width="170" height="102" as="geometry"/>
                </mxCell>
                <mxCell id="_K2zp6BUFUGSj3P7to0--75" style="edgeStyle=none;html=1;entryX=0.5;entryY=0;entryDx=0;entryDy=0;fontSize=15;exitX=0.5;exitY=1;exitDx=0;exitDy=0;" edge="1" parent="1" source="45" target="46">
                    <mxGeometry relative="1" as="geometry">
                        <Array as="points">
                            <mxPoint x="290" y="1190"/>
                            <mxPoint x="460" y="1190"/>
                        </Array>
                    </mxGeometry>
                </mxCell>
                <mxCell id="45" value="Создание пары&lt;br style=&quot;font-size: 16px;&quot;&gt;перемен-знач" style="rounded=1;whiteSpace=wrap;html=1;absoluteArcSize=1;arcSize=14;strokeWidth=2;fontSize=16;" vertex="1" parent="1">
                    <mxGeometry x="205" y="1060" width="170" height="102" as="geometry"/>
                </mxCell>
                <mxCell id="_K2zp6BUFUGSj3P7to0--84" value="" style="edgeStyle=none;html=1;fontSize=15;" edge="1" parent="1" source="46" target="52">
                    <mxGeometry relative="1" as="geometry"/>
                </mxCell>
                <mxCell id="46" value="Добавление в массив" style="rounded=1;whiteSpace=wrap;html=1;absoluteArcSize=1;arcSize=14;strokeWidth=2;fontSize=16;" vertex="1" parent="1">
                    <mxGeometry x="375" y="1220" width="170" height="102" as="geometry"/>
                </mxCell>
                <mxCell id="_K2zp6BUFUGSj3P7to0--82" value="" style="edgeStyle=none;html=1;fontSize=15;" edge="1" parent="1" source="47" target="48">
                    <mxGeometry relative="1" as="geometry"/>
                </mxCell>
                <mxCell id="47" value="Создание пары&lt;br style=&quot;font-size: 16px;&quot;&gt;перемен-знач" style="rounded=1;whiteSpace=wrap;html=1;absoluteArcSize=1;arcSize=14;strokeWidth=2;fontSize=16;" vertex="1" parent="1">
                    <mxGeometry x="790" y="900" width="170" height="102" as="geometry"/>
                </mxCell>
                <mxCell id="_K2zp6BUFUGSj3P7to0--83" value="" style="edgeStyle=none;html=1;fontSize=15;" edge="1" parent="1" source="48" target="53">
                    <mxGeometry relative="1" as="geometry"/>
                </mxCell>
                <mxCell id="48" value="Добавление в массив" style="rounded=1;whiteSpace=wrap;html=1;absoluteArcSize=1;arcSize=14;strokeWidth=2;" vertex="1" parent="1">
                    <mxGeometry x="790" y="1042" width="170" height="102" as="geometry"/>
                </mxCell>
                <mxCell id="_K2zp6BUFUGSj3P7to0--87" style="edgeStyle=none;html=1;entryX=0.5;entryY=1;entryDx=0;entryDy=0;entryPerimeter=0;fontSize=15;exitX=0.5;exitY=1;exitDx=0;exitDy=0;" edge="1" parent="1" source="49" target="_K2zp6BUFUGSj3P7to0--55">
                    <mxGeometry relative="1" as="geometry">
                        <Array as="points">
                            <mxPoint x="-135" y="1490"/>
                            <mxPoint x="460" y="1490"/>
                        </Array>
                    </mxGeometry>
                </mxCell>
                <mxCell id="49" value="Обнуление пары&lt;br style=&quot;font-size: 16px;&quot;&gt;счетчик +1" style="rounded=1;whiteSpace=wrap;html=1;absoluteArcSize=1;arcSize=14;strokeWidth=2;fontSize=16;" vertex="1" parent="1">
                    <mxGeometry x="-220" y="1360" width="170" height="102" as="geometry"/>
                </mxCell>
                <mxCell id="_K2zp6BUFUGSj3P7to0--86" value="" style="edgeStyle=none;html=1;fontSize=15;" edge="1" parent="1" source="52" target="_K2zp6BUFUGSj3P7to0--55">
                    <mxGeometry relative="1" as="geometry"/>
                </mxCell>
                <mxCell id="52" value="Обнуление пары&lt;br style=&quot;font-size: 16px;&quot;&gt;счетчик +1" style="rounded=1;whiteSpace=wrap;html=1;absoluteArcSize=1;arcSize=14;strokeWidth=2;fontSize=16;" vertex="1" parent="1">
                    <mxGeometry x="375" y="1360" width="170" height="102" as="geometry"/>
                </mxCell>
                <mxCell id="_K2zp6BUFUGSj3P7to0--89" style="edgeStyle=none;html=1;entryX=0.5;entryY=1;entryDx=0;entryDy=0;entryPerimeter=0;fontSize=15;" edge="1" parent="1" source="53" target="_K2zp6BUFUGSj3P7to0--55">
                    <mxGeometry relative="1" as="geometry">
                        <Array as="points">
                            <mxPoint x="875" y="1490"/>
                            <mxPoint x="460" y="1490"/>
                        </Array>
                    </mxGeometry>
                </mxCell>
                <mxCell id="53" value="Обнуление пары&lt;br style=&quot;font-size: 16px;&quot;&gt;счетчик +1" style="rounded=1;whiteSpace=wrap;html=1;absoluteArcSize=1;arcSize=14;strokeWidth=2;fontSize=16;" vertex="1" parent="1">
                    <mxGeometry x="790" y="1180" width="170" height="102" as="geometry"/>
                </mxCell>
                <mxCell id="_K2zp6BUFUGSj3P7to0--81" value="" style="edgeStyle=none;html=1;fontSize=15;" edge="1" parent="1" source="54" target="47">
                    <mxGeometry relative="1" as="geometry"/>
                </mxCell>
                <mxCell id="54" value="Функция Y" style="rounded=1;whiteSpace=wrap;html=1;absoluteArcSize=1;arcSize=14;strokeWidth=2;fontSize=16;" vertex="1" parent="1">
                    <mxGeometry x="790" y="760" width="170" height="102" as="geometry"/>
                </mxCell>
                <mxCell id="_K2zp6BUFUGSj3P7to0--88" style="edgeStyle=none;html=1;entryX=0.5;entryY=1;entryDx=0;entryDy=0;entryPerimeter=0;fontSize=15;" edge="1" parent="1" source="55" target="_K2zp6BUFUGSj3P7to0--55">
                    <mxGeometry relative="1" as="geometry">
                        <Array as="points">
                            <mxPoint x="1195" y="1490"/>
                            <mxPoint x="460" y="1490"/>
                        </Array>
                    </mxGeometry>
                </mxCell>
                <mxCell id="55" value="Недопустимое значение" style="shape=parallelogram;html=1;strokeWidth=2;perimeter=parallelogramPerimeter;whiteSpace=wrap;rounded=1;arcSize=12;size=0.23;fontSize=16;" vertex="1" parent="1">
                    <mxGeometry x="1110" y="760" width="170" height="102" as="geometry"/>
                </mxCell>
                <mxCell id="_K2zp6BUFUGSj3P7to0--94" value="" style="edgeStyle=none;html=1;fontSize=16;" edge="1" parent="1" source="_K2zp6BUFUGSj3P7to0--55" target="_K2zp6BUFUGSj3P7to0--92">
                    <mxGeometry relative="1" as="geometry"/>
                </mxCell>
                <mxCell id="_K2zp6BUFUGSj3P7to0--55" value="Выполнение программы" style="strokeWidth=2;html=1;shape=mxgraph.flowchart.loop_limit;whiteSpace=wrap;direction=west;fontSize=16;" vertex="1" parent="1">
                    <mxGeometry x="375" y="1520" width="170" height="102" as="geometry"/>
                </mxCell>
                <mxCell id="_K2zp6BUFUGSj3P7to0--68" value="&lt;font style=&quot;font-size: 15px;&quot;&gt;Да&lt;/font&gt;" style="text;strokeColor=none;align=center;fillColor=none;html=1;verticalAlign=middle;whiteSpace=wrap;rounded=0;" vertex="1" parent="1">
                    <mxGeometry x="-40" y="788" width="60" height="30" as="geometry"/>
                </mxCell>
                <mxCell id="_K2zp6BUFUGSj3P7to0--70" value="&lt;font style=&quot;font-size: 15px;&quot;&gt;Нет&lt;/font&gt;" style="text;strokeColor=none;align=center;fillColor=none;html=1;verticalAlign=middle;whiteSpace=wrap;rounded=0;fontSize=14;" vertex="1" parent="1">
                    <mxGeometry x="-290" y="788" width="60" height="30" as="geometry"/>
                </mxCell>
                <mxCell id="_K2zp6BUFUGSj3P7to0--79" value="&lt;font style=&quot;font-size: 15px;&quot;&gt;Да&lt;/font&gt;" style="text;strokeColor=none;align=center;fillColor=none;html=1;verticalAlign=middle;whiteSpace=wrap;rounded=0;" vertex="1" parent="1">
                    <mxGeometry x="555" y="788" width="60" height="30" as="geometry"/>
                </mxCell>
                <mxCell id="_K2zp6BUFUGSj3P7to0--80" value="&lt;font style=&quot;font-size: 15px;&quot;&gt;Нет&lt;/font&gt;" style="text;strokeColor=none;align=center;fillColor=none;html=1;verticalAlign=middle;whiteSpace=wrap;rounded=0;fontSize=14;" vertex="1" parent="1">
                    <mxGeometry x="305" y="788" width="60" height="30" as="geometry"/>
                </mxCell>
                <mxCell id="_K2zp6BUFUGSj3P7to0--90" value="Обнуление пары&lt;br style=&quot;font-size: 16px;&quot;&gt;счетчик +1" style="rounded=1;whiteSpace=wrap;html=1;absoluteArcSize=1;arcSize=14;strokeWidth=2;fontSize=16;" vertex="1" parent="1">
                    <mxGeometry x="790" y="1180" width="170" height="102" as="geometry"/>
                </mxCell>
                <mxCell id="_K2zp6BUFUGSj3P7to0--91" value="Добавление в массив" style="rounded=1;whiteSpace=wrap;html=1;absoluteArcSize=1;arcSize=14;strokeWidth=2;fontSize=16;" vertex="1" parent="1">
                    <mxGeometry x="790" y="1042" width="170" height="102" as="geometry"/>
                </mxCell>
                <mxCell id="_K2zp6BUFUGSj3P7to0--92" value="1" style="strokeWidth=2;html=1;shape=mxgraph.flowchart.start_2;whiteSpace=wrap;fontSize=16;aspect=fixed;" vertex="1" parent="1">
                    <mxGeometry x="409" y="1660" width="102" height="102" as="geometry"/>
                </mxCell>
            </root>
        </mxGraphModel>
    </diagram>
    <diagram id="qCIeFEwa6PqIrSBqNLN0" name="Page-2">
        <mxGraphModel dx="1820" dy="1031" grid="1" gridSize="10" guides="1" tooltips="1" connect="1" arrows="1" fold="1" page="1" pageScale="1" pageWidth="850" pageHeight="1100" math="0" shadow="0">
            <root>
                <mxCell id="0"/>
                <mxCell id="1" parent="0"/>
                <mxCell id="GF348pyQlkX5OXnRLZ9h-9" value="" style="edgeStyle=none;html=1;fontSize=16;" edge="1" parent="1" source="ANoTTB0OzapASu93jBmZ-1" target="ANoTTB0OzapASu93jBmZ-2">
                    <mxGeometry relative="1" as="geometry"/>
                </mxCell>
                <mxCell id="ANoTTB0OzapASu93jBmZ-1" value="1" style="strokeWidth=2;html=1;shape=mxgraph.flowchart.start_2;whiteSpace=wrap;fontSize=16;aspect=fixed;" vertex="1" parent="1">
                    <mxGeometry x="409" y="60" width="102" height="102" as="geometry"/>
                </mxCell>
                <mxCell id="GF348pyQlkX5OXnRLZ9h-19" style="edgeStyle=none;html=1;entryX=0.5;entryY=0;entryDx=0;entryDy=0;entryPerimeter=0;fontSize=16;exitX=0;exitY=0.5;exitDx=0;exitDy=0;exitPerimeter=0;" edge="1" parent="1" source="ANoTTB0OzapASu93jBmZ-2" target="DC-F_UqNEmEejcwchw1y-7">
                    <mxGeometry relative="1" as="geometry">
                        <Array as="points">
                            <mxPoint x="290" y="291"/>
                        </Array>
                    </mxGeometry>
                </mxCell>
                <mxCell id="GF348pyQlkX5OXnRLZ9h-20" style="edgeStyle=none;html=1;entryX=0.5;entryY=0;entryDx=0;entryDy=0;entryPerimeter=0;fontSize=16;exitX=1;exitY=0.5;exitDx=0;exitDy=0;exitPerimeter=0;" edge="1" parent="1" source="ANoTTB0OzapASu93jBmZ-2" target="DC-F_UqNEmEejcwchw1y-5">
                    <mxGeometry relative="1" as="geometry">
                        <Array as="points">
                            <mxPoint x="630" y="291"/>
                        </Array>
                    </mxGeometry>
                </mxCell>
                <mxCell id="ANoTTB0OzapASu93jBmZ-2" value="Выбор операции" style="strokeWidth=2;html=1;shape=mxgraph.flowchart.decision;whiteSpace=wrap;fontSize=16;" vertex="1" parent="1">
                    <mxGeometry x="375" y="240" width="170" height="102" as="geometry"/>
                </mxCell>
                <mxCell id="GF348pyQlkX5OXnRLZ9h-18" style="edgeStyle=none;html=1;entryX=0.5;entryY=0;entryDx=0;entryDy=0;entryPerimeter=0;fontSize=16;exitX=0.5;exitY=1;exitDx=0;exitDy=0;exitPerimeter=0;" edge="1" parent="1" source="DC-F_UqNEmEejcwchw1y-5" target="GF348pyQlkX5OXnRLZ9h-8">
                    <mxGeometry relative="1" as="geometry">
                        <Array as="points">
                            <mxPoint x="630" y="1140"/>
                            <mxPoint x="460" y="1140"/>
                        </Array>
                    </mxGeometry>
                </mxCell>
                <mxCell id="DC-F_UqNEmEejcwchw1y-5" value="&quot;Incorrect value&quot;" style="strokeWidth=2;html=1;shape=mxgraph.flowchart.display;whiteSpace=wrap;fontSize=16;aspect=fixed;" vertex="1" parent="1">
                    <mxGeometry x="545" y="400" width="170" height="102" as="geometry"/>
                </mxCell>
                <mxCell id="GF348pyQlkX5OXnRLZ9h-10" value="" style="edgeStyle=none;html=1;fontSize=16;" edge="1" parent="1" source="DC-F_UqNEmEejcwchw1y-7" target="DC-F_UqNEmEejcwchw1y-15">
                    <mxGeometry relative="1" as="geometry"/>
                </mxCell>
                <mxCell id="DC-F_UqNEmEejcwchw1y-7" value="Вывод max и min значения списка F и соот-щих x и a" style="strokeWidth=2;html=1;shape=mxgraph.flowchart.display;whiteSpace=wrap;fontSize=14;aspect=fixed;spacingTop=2;spacing=0;" vertex="1" parent="1">
                    <mxGeometry x="205" y="400" width="170" height="102" as="geometry"/>
                </mxCell>
                <mxCell id="GF348pyQlkX5OXnRLZ9h-12" value="" style="edgeStyle=none;html=1;fontSize=16;" edge="1" parent="1" source="DC-F_UqNEmEejcwchw1y-15" target="GF348pyQlkX5OXnRLZ9h-2">
                    <mxGeometry relative="1" as="geometry"/>
                </mxCell>
                <mxCell id="DC-F_UqNEmEejcwchw1y-15" value="Вывод всех&lt;br style=&quot;font-size: 14px;&quot;&gt;элементов массива" style="strokeWidth=2;html=1;shape=mxgraph.flowchart.display;whiteSpace=wrap;fontSize=14;aspect=fixed;spacingTop=0;spacing=0;" vertex="1" parent="1">
                    <mxGeometry x="205" y="540" width="170" height="102" as="geometry"/>
                </mxCell>
                <mxCell id="GF348pyQlkX5OXnRLZ9h-13" value="" style="edgeStyle=none;html=1;fontSize=16;entryX=0.5;entryY=0;entryDx=0;entryDy=0;entryPerimeter=0;exitX=0.5;exitY=1;exitDx=0;exitDy=0;" edge="1" parent="1" source="GF348pyQlkX5OXnRLZ9h-2" target="GF348pyQlkX5OXnRLZ9h-5">
                    <mxGeometry relative="1" as="geometry"/>
                </mxCell>
                <mxCell id="GF348pyQlkX5OXnRLZ9h-2" value="Проверка на соответствие элементов с шаблоном" style="rounded=1;whiteSpace=wrap;html=1;absoluteArcSize=1;arcSize=14;strokeWidth=2;fontSize=16;aspect=fixed;" vertex="1" parent="1">
                    <mxGeometry x="205" y="680" width="170" height="102" as="geometry"/>
                </mxCell>
                <mxCell id="GF348pyQlkX5OXnRLZ9h-14" style="edgeStyle=none;html=1;entryX=0.5;entryY=0;entryDx=0;entryDy=0;entryPerimeter=0;fontSize=16;exitX=0;exitY=0.5;exitDx=0;exitDy=0;exitPerimeter=0;" edge="1" parent="1" source="GF348pyQlkX5OXnRLZ9h-5" target="GF348pyQlkX5OXnRLZ9h-6">
                    <mxGeometry relative="1" as="geometry">
                        <Array as="points">
                            <mxPoint x="120" y="870"/>
                        </Array>
                    </mxGeometry>
                </mxCell>
                <mxCell id="GF348pyQlkX5OXnRLZ9h-15" style="edgeStyle=none;html=1;entryX=0.5;entryY=0;entryDx=0;entryDy=0;entryPerimeter=0;fontSize=16;exitX=1;exitY=0.5;exitDx=0;exitDy=0;exitPerimeter=0;" edge="1" parent="1" source="GF348pyQlkX5OXnRLZ9h-5" target="GF348pyQlkX5OXnRLZ9h-7">
                    <mxGeometry relative="1" as="geometry">
                        <Array as="points">
                            <mxPoint x="475" y="870"/>
                        </Array>
                    </mxGeometry>
                </mxCell>
                <mxCell id="GF348pyQlkX5OXnRLZ9h-5" value="Совпадения есть?" style="strokeWidth=2;html=1;shape=mxgraph.flowchart.decision;whiteSpace=wrap;fontSize=16;" vertex="1" parent="1">
                    <mxGeometry x="205" y="820" width="170" height="102" as="geometry"/>
                </mxCell>
                <mxCell id="GF348pyQlkX5OXnRLZ9h-17" style="edgeStyle=none;html=1;entryX=0.5;entryY=0;entryDx=0;entryDy=0;entryPerimeter=0;fontSize=16;exitX=0.5;exitY=1;exitDx=0;exitDy=0;exitPerimeter=0;" edge="1" parent="1" source="GF348pyQlkX5OXnRLZ9h-6" target="GF348pyQlkX5OXnRLZ9h-8">
                    <mxGeometry relative="1" as="geometry">
                        <Array as="points">
                            <mxPoint x="120" y="1100"/>
                            <mxPoint x="290" y="1100"/>
                            <mxPoint x="290" y="1140"/>
                            <mxPoint x="460" y="1140"/>
                        </Array>
                    </mxGeometry>
                </mxCell>
                <mxCell id="GF348pyQlkX5OXnRLZ9h-6" value="Вывод сообщения о наличии и кол-ве&lt;br style=&quot;font-size: 14px;&quot;&gt;соот-вий" style="strokeWidth=2;html=1;shape=mxgraph.flowchart.display;whiteSpace=wrap;fontSize=14;aspect=fixed;spacingTop=5;spacing=0;" vertex="1" parent="1">
                    <mxGeometry x="35" y="950" width="170" height="102" as="geometry"/>
                </mxCell>
                <mxCell id="GF348pyQlkX5OXnRLZ9h-16" value="" style="edgeStyle=none;html=1;fontSize=16;exitX=0.5;exitY=1;exitDx=0;exitDy=0;exitPerimeter=0;entryX=0.5;entryY=0;entryDx=0;entryDy=0;entryPerimeter=0;" edge="1" parent="1" source="GF348pyQlkX5OXnRLZ9h-7" target="GF348pyQlkX5OXnRLZ9h-8">
                    <mxGeometry relative="1" as="geometry">
                        <Array as="points">
                            <mxPoint x="475" y="1100"/>
                            <mxPoint x="290" y="1100"/>
                            <mxPoint x="290" y="1140"/>
                            <mxPoint x="460" y="1140"/>
                        </Array>
                    </mxGeometry>
                </mxCell>
                <mxCell id="GF348pyQlkX5OXnRLZ9h-7" value="Вывод сообщения об отсутствии соот-вий" style="strokeWidth=2;html=1;shape=mxgraph.flowchart.display;whiteSpace=wrap;fontSize=14;aspect=fixed;spacingTop=5;spacing=0;" vertex="1" parent="1">
                    <mxGeometry x="390" y="950" width="170" height="102" as="geometry"/>
                </mxCell>
                <mxCell id="GF348pyQlkX5OXnRLZ9h-8" value="Конец" style="strokeWidth=2;html=1;shape=mxgraph.flowchart.terminator;whiteSpace=wrap;fontSize=16;aspect=fixed;" vertex="1" parent="1">
                    <mxGeometry x="375" y="1190" width="170" height="102" as="geometry"/>
                </mxCell>
            </root>
        </mxGraphModel>
    </diagram>
</mxfile>